<svg xmlns="http://www.w3.org/2000/svg" xmlns:xlink="http://www.w3.org/1999/xlink" width="512" zoomAndPan="magnify" viewBox="0 0 384 383.999986" height="512" preserveAspectRatio="xMidYMid meet" version="1.0"><defs><g></g><clipPath id="8e5dc360dc"><path d="M 38.398438 38.398438 L 345.601562 38.398438 L 345.601562 345.601562 L 38.398438 345.601562 Z M 38.398438 38.398438 " clip-rule="nonzero"></path></clipPath><clipPath id="007d4f12ab"><path d="M 56.398438 38.398438 L 327.601562 38.398438 C 337.542969 38.398438 345.601562 46.457031 345.601562 56.398438 L 345.601562 327.601562 C 345.601562 337.542969 337.542969 345.601562 327.601562 345.601562 L 56.398438 345.601562 C 46.457031 345.601562 38.398438 337.542969 38.398438 327.601562 L 38.398438 56.398438 C 38.398438 46.457031 46.457031 38.398438 56.398438 38.398438 Z M 56.398438 38.398438 " clip-rule="nonzero"></path></clipPath><clipPath id="95c6b9c288"><path d="M 0.398438 0.398438 L 307.601562 0.398438 L 307.601562 307.601562 L 0.398438 307.601562 Z M 0.398438 0.398438 " clip-rule="nonzero"></path></clipPath><clipPath id="6ea5e5e2a5"><path d="M 18.398438 0.398438 L 289.601562 0.398438 C 299.542969 0.398438 307.601562 8.457031 307.601562 18.398438 L 307.601562 289.601562 C 307.601562 299.542969 299.542969 307.601562 289.601562 307.601562 L 18.398438 307.601562 C 8.457031 307.601562 0.398438 299.542969 0.398438 289.601562 L 0.398438 18.398438 C 0.398438 8.457031 8.457031 0.398438 18.398438 0.398438 Z M 18.398438 0.398438 " clip-rule="nonzero"></path></clipPath><clipPath id="ca9d0eee0a"><rect x="0" width="308" y="0" height="308"></rect></clipPath><clipPath id="f03134350a"><rect x="0" width="183" y="0" height="356"></rect></clipPath></defs><g clip-path="url(#8e5dc360dc)"><g clip-path="url(#007d4f12ab)"><g transform="matrix(1, 0, 0, 1, 38, 38)"><g clip-path="url(#ca9d0eee0a)"><g clip-path="url(#95c6b9c288)"><g clip-path="url(#6ea5e5e2a5)"><path fill="#368c9b" d="M 0.398438 0.398438 L 307.601562 0.398438 L 307.601562 307.601562 L 0.398438 307.601562 Z M 0.398438 0.398438 " fill-opacity="1" fill-rule="nonzero"></path></g></g></g></g></g></g><g transform="matrix(1, 0, 0, 1, 102, 14)"><g clip-path="url(#f03134350a)"><g fill="#ffffff" fill-opacity="1"><g transform="translate(0.31278, 276.942754)"><g><path d="M 89.53125 1.75 C 74.363281 1.75 59.828125 -0.675781 45.921875 -5.53125 C 32.023438 -10.394531 21.285156 -16.8125 13.703125 -24.78125 L 22.15625 -41.40625 C 29.550781 -34.019531 39.367188 -28.039062 51.609375 -23.46875 C 63.859375 -18.90625 76.5 -16.625 89.53125 -16.625 C 107.800781 -16.625 121.503906 -19.976562 130.640625 -26.6875 C 139.785156 -33.394531 144.359375 -42.09375 144.359375 -52.78125 C 144.359375 -60.945312 141.878906 -67.457031 136.921875 -72.3125 C 131.960938 -77.175781 125.882812 -80.921875 118.6875 -83.546875 C 111.5 -86.171875 101.488281 -89.039062 88.65625 -92.15625 C 73.289062 -96.039062 61.039062 -99.78125 51.90625 -103.375 C 42.769531 -106.976562 34.941406 -112.472656 28.421875 -119.859375 C 21.910156 -127.242188 18.65625 -137.253906 18.65625 -149.890625 C 18.65625 -160.191406 21.378906 -169.570312 26.828125 -178.03125 C 32.273438 -186.488281 40.632812 -193.242188 51.90625 -198.296875 C 63.1875 -203.359375 77.1875 -205.890625 93.90625 -205.890625 C 105.570312 -205.890625 116.992188 -204.285156 128.171875 -201.078125 C 139.347656 -197.867188 149.019531 -193.445312 157.1875 -187.8125 L 149.890625 -170.59375 C 141.335938 -176.238281 132.203125 -180.46875 122.484375 -183.28125 C 112.765625 -186.101562 103.238281 -187.515625 93.90625 -187.515625 C 76.019531 -187.515625 62.554688 -184.0625 53.515625 -177.15625 C 44.472656 -170.257812 39.953125 -161.367188 39.953125 -150.484375 C 39.953125 -142.316406 42.429688 -135.753906 47.390625 -130.796875 C 52.347656 -125.835938 58.566406 -122.046875 66.046875 -119.421875 C 73.535156 -116.796875 83.597656 -113.925781 96.234375 -110.8125 C 111.203125 -107.125 123.300781 -103.476562 132.53125 -99.875 C 141.769531 -96.28125 149.597656 -90.835938 156.015625 -83.546875 C 162.429688 -76.253906 165.640625 -66.390625 165.640625 -53.953125 C 165.640625 -43.648438 162.867188 -34.269531 157.328125 -25.8125 C 151.785156 -17.351562 143.28125 -10.644531 131.8125 -5.6875 C 120.34375 -0.726562 106.25 1.75 89.53125 1.75 Z M 89.53125 1.75 "></path></g></g></g></g></g></svg>